<svg id="Layer_1" data-name="Layer 1" xmlns="http://www.w3.org/2000/svg" viewBox="0 0 1158 368"><defs><style>.cls-1{fill:#fff;}.cls-2,.cls-4,.cls-6{fill:none;stroke-miterlimit:10;stroke-width:18px;}.cls-2{stroke:#d4145a;}.cls-3{fill:#d4145a;}.cls-4{stroke:#009245;}.cls-5{fill:#009245;}.cls-6{stroke:blue;}.cls-7{fill:blue;}.cls-8{font-size:508.27px;font-family:Arial-Black, Arial Black;letter-spacing:-0.04em;}</style></defs><title>Artboard 1</title><path class="cls-1" d="M40,74A34,34,0,1,1,74,40,34,34,0,0,1,40,74Z"/><path d="M40,12A28,28,0,1,1,12,40,28,28,0,0,1,40,12M40,0A40,40,0,1,0,80,40,40,40,0,0,0,40,0Z"/><path class="cls-1" d="M40,362a34,34,0,1,1,34-34A34,34,0,0,1,40,362Z"/><path d="M40,300a28,28,0,1,1-28,28,28,28,0,0,1,28-28m0-12a40,40,0,1,0,40,40,40,40,0,0,0-40-40Z"/><path class="cls-1" d="M327,362a34,34,0,1,1,34-34A34,34,0,0,1,327,362Z"/><path d="M327,300a28,28,0,1,1-28,28,28,28,0,0,1,28-28m0-12a40,40,0,1,0,40,40,40,40,0,0,0-40-40Z"/><path class="cls-1" d="M327,74a34,34,0,1,1,34-34A34,34,0,0,1,327,74Z"/><path d="M327,12a28,28,0,1,1-28,28,28,28,0,0,1,28-28m0-12a40,40,0,1,0,40,40A40,40,0,0,0,327,0Z"/><line class="cls-2" x1="40" y1="80" x2="40.39" y2="243.29"/><polygon class="cls-3" points="8.96 234.17 40.5 288.5 71.78 234.02 8.96 234.17"/><line class="cls-2" x1="80.5" y1="40.5" x2="241.29" y2="40.5"/><polygon class="cls-3" points="232.1 71.91 286.5 40.5 232.1 9.09 232.1 71.91"/><line class="cls-4" x1="327.5" y1="80.5" x2="327.5" y2="243.29"/><polygon class="cls-5" points="296.09 234.1 327.5 288.5 358.91 234.1 296.09 234.1"/><line class="cls-4" x1="79.5" y1="328.5" x2="241.29" y2="328.5"/><polygon class="cls-5" points="232.1 359.91 286.5 328.5 232.1 297.09 232.1 359.91"/><line class="cls-2" x1="69" y1="67" x2="268.1" y2="266.96"/><polygon class="cls-3" points="239.35 282.61 300 299 283.88 238.28 239.35 282.61"/><line class="cls-6" x1="297" y1="67" x2="99.69" y2="267.76"/><polygon class="cls-7" points="83.73 239.18 68 300 128.54 283.22 83.73 239.18"/><text class="cls-8" transform="translate(361.19 365.8) scale(0.82 1)">L<tspan x="318.68" y="-6">eo</tspan></text></svg>